<svg width="108" height="109" viewBox="0 0 108 109" fill="none" xmlns="http://www.w3.org/2000/svg">
<path d="M30.6836 3.5294C30.4571 2.08701 32.2155 1.20398 33.2371 2.2471L57.8839 27.4127C59.2533 28.8109 61.3694 29.1637 63.1183 28.2854L94.2422 12.6557C95.5357 12.0061 96.908 13.3843 96.253 14.675L80.3597 45.9909C79.4864 47.7116 79.8073 49.7975 81.1575 51.1761L105.901 76.4401C106.919 77.4798 106.009 79.2147 104.575 78.9679L70.1847 73.0513C68.2391 72.7165 66.3024 73.689 65.4089 75.4496L49.6165 106.567C48.9579 107.864 47.0229 107.558 46.7971 106.121L41.3102 71.1865C41.0108 69.2803 39.5294 67.7771 37.6277 67.4499L3.01803 61.4955C1.59158 61.2501 1.30575 59.3263 2.5992 58.6767L33.7231 43.047C35.4721 42.1687 36.4528 40.2607 36.1492 38.3273L30.6836 3.5294Z" stroke="#FFB0B0" stroke-opacity="0.5" stroke-width="3"/>
</svg>
