<svg width="22" height="22" viewBox="0 0 22 22" fill="none" xmlns="http://www.w3.org/2000/svg">
<path d="M9.41907 3.18045C9.84208 1.74624 11.8735 1.74623 12.2965 3.18046L12.5694 4.10555C13.1337 6.01904 14.8906 7.33254 16.8856 7.33254H18.3415C19.7592 7.33254 20.3857 9.11769 19.2788 10.0036L17.6171 11.3337C16.1903 12.4756 15.5959 14.3671 16.1129 16.1199L16.6274 17.8646C17.0427 19.2725 15.3974 20.3773 14.2514 19.46L13.6698 18.9945C12.026 17.6788 9.68962 17.6788 8.04582 18.9945L7.46421 19.46L8.40154 20.6311L7.46421 19.46C6.3182 20.3773 4.6729 19.2725 5.08816 17.8646L5.60273 16.1199C6.11971 14.3671 5.52527 12.4756 4.09852 11.3337L2.43678 10.0036C1.32993 9.1177 1.95638 7.33254 3.37411 7.33254H4.83004C6.82502 7.33254 8.58186 6.01904 9.14622 4.10555L9.41907 3.18045Z" stroke="white" stroke-opacity="0.5" stroke-width="3"/>
</svg>
