<svg width="66" height="88" viewBox="0 0 66 88" fill="none" xmlns="http://www.w3.org/2000/svg">
<g filter="url(#filter0_d_1_302)">
<path d="M35.932 22.5C37.39 24.7763 38.1739 27.5038 38.1738 30.3011V33C38.9423 33 39.6886 32.7136 40.2943 32.1862C40.9 31.6589 41.3302 30.9209 41.5166 30.0896L41.7608 29L42.4235 29.8869C43.492 31.3166 44.0719 33.122 44.0603 34.9831C44.0487 36.8441 43.4465 38.6405 42.3603 40.0535C41.9533 40.583 41.7405 41.2643 41.7644 41.9612C41.7883 42.6581 42.0473 43.3193 42.4895 43.8125C42.7363 44.0878 43.0325 44.302 43.3587 44.441C43.6848 44.5799 44.0336 44.6407 44.3822 44.6191C44.7309 44.5976 45.0715 44.4943 45.3819 44.3159C45.6923 44.1376 45.9654 43.8883 46.1835 43.5843L48.0381 41L49.8316 46C50.6449 49.0231 50.709 52.2353 50.0171 55.2958C49.3252 58.3562 47.9031 61.1506 45.9017 63.3824L45.6755 63.6346C42.5949 67.0699 38.4167 68.9999 34.06 69H32.23C29.3933 69 26.6049 68.1808 24.1363 66.6223C21.6678 65.0637 19.6032 62.8188 18.1437 60.1063C16.3961 56.8581 15.5944 53.0858 15.8489 49.3085C16.1035 45.5312 17.4018 41.9349 19.5652 39.0145L26.8249 29.2145C27.5403 28.2488 28 27.0799 28.1525 25.8389C28.305 24.5979 28.1441 23.3341 27.688 22.1895C27.1093 20.7375 27.0095 19.1042 27.4063 17.5781C27.8031 16.052 28.671 14.7315 29.8565 13.85L33.6901 11V14.6989C33.6901 17.4962 34.4739 20.2237 35.932 22.5Z" fill="url(#paint0_linear_1_302)"/>
<path d="M40.3133 62.1764L40.3213 62.1675C41.7161 60.6002 42.7112 58.6467 43.2042 56.5082C43.6973 54.3696 43.6704 52.1232 43.1265 50L40.5177 52.9093C40.2715 53.1838 39.9792 53.4016 39.6575 53.5502C39.3358 53.6988 38.9911 53.7753 38.6429 53.7753C38.2947 53.7753 37.9499 53.6988 37.6282 53.5502C37.3065 53.4016 37.0142 53.1838 36.768 52.9093C36.3001 52.3876 36.024 51.6897 35.994 50.9526C35.9639 50.2156 36.1821 49.4926 36.6056 48.9258C37.4777 47.7587 38.0259 46.3335 38.1829 44.8245C38.34 43.3155 38.0992 41.7881 37.4899 40.4294L33.2622 31L32.612 38.975C32.5341 39.9315 32.2836 40.8605 31.8758 41.7064C31.468 42.5524 30.9111 43.2977 30.2387 43.8978L26.5426 47.1951C25.5615 48.0703 24.7695 49.1804 24.2253 50.4432C23.681 51.706 23.3984 53.0891 23.3984 54.4901V55.625C23.3984 56.9945 23.6685 58.3473 24.1894 59.5875C24.7103 60.8277 25.4693 61.9251 26.4128 62.8019C27.9402 64.2213 29.8706 64.9886 31.8588 64.9668L34.4501 64.9381C36.6543 64.9136 38.7609 63.9213 40.3133 62.1764Z" fill="#FDD04A"/>
<path d="M18.4514 32C18.2136 32 17.9855 31.8946 17.8173 31.7071C17.6492 31.5196 17.5547 31.2652 17.5547 31V29C17.5547 28.7348 17.6492 28.4804 17.8173 28.2929C17.9855 28.1054 18.2136 28 18.4514 28C18.6893 28 18.9174 28.1054 19.0855 28.2929C19.2537 28.4804 19.3482 28.7348 19.3482 29V31C19.3482 31.2652 19.2537 31.5196 19.0855 31.7071C18.9174 31.8946 18.6893 32 18.4514 32Z" fill="#FE691E"/>
<path d="M21.1409 27C20.9031 27 20.675 26.8946 20.5068 26.7071C20.3386 26.5196 20.2441 26.2652 20.2441 26V24C20.2441 23.7348 20.3386 23.4804 20.5068 23.2929C20.675 23.1054 20.9031 23 21.1409 23C21.3787 23 21.6068 23.1054 21.775 23.2929C21.9432 23.4804 22.0376 23.7348 22.0376 24V26C22.0376 26.2652 21.9432 26.5196 21.775 26.7071C21.6068 26.8946 21.3787 27 21.1409 27Z" fill="#FF8D54"/>
<path d="M17.555 23C17.3171 23 17.089 22.8946 16.9209 22.7071C16.7527 22.5196 16.6582 22.2652 16.6582 22V20C16.6582 19.7348 16.7527 19.4804 16.9209 19.2929C17.089 19.1054 17.3171 19 17.555 19C17.7928 19 18.0209 19.1054 18.1891 19.2929C18.3572 19.4804 18.4517 19.7348 18.4517 20V22C18.4517 22.2652 18.3572 22.5196 18.1891 22.7071C18.0209 22.8946 17.7928 23 17.555 23Z" fill="#FFB895"/>
<path d="M48.9397 35C48.7019 35 48.4738 34.8946 48.3056 34.7071C48.1374 34.5196 48.043 34.2652 48.043 34V32C48.043 31.7348 48.1374 31.4804 48.3056 31.2929C48.4738 31.1054 48.7019 31 48.9397 31C49.1776 31 49.4056 31.1054 49.5738 31.2929C49.742 31.4804 49.8365 31.7348 49.8365 32V34C49.8365 34.2652 49.742 34.5196 49.5738 34.7071C49.4056 34.8946 49.1776 35 48.9397 35Z" fill="#FE691E"/>
<path d="M46.2503 28C46.0124 28 45.7843 27.8946 45.6162 27.7071C45.448 27.5196 45.3535 27.2652 45.3535 27V25C45.3535 24.7348 45.448 24.4804 45.6162 24.2929C45.7843 24.1054 46.0124 24 46.2503 24C46.4881 24 46.7162 24.1054 46.8844 24.2929C47.0525 24.4804 47.147 24.7348 47.147 25V27C47.147 27.2652 47.0525 27.5196 46.8844 27.7071C46.7162 27.8946 46.4881 28 46.2503 28Z" fill="#FF8D54"/>
<path d="M49.8382 25C49.6003 25 49.3722 24.8946 49.2041 24.7071C49.0359 24.5196 48.9414 24.2652 48.9414 24V21C48.9414 20.7348 49.0359 20.4804 49.2041 20.2929C49.3722 20.1054 49.6003 20 49.8382 20C50.076 20 50.3041 20.1054 50.4723 20.2929C50.6404 20.4804 50.7349 20.7348 50.7349 21V24C50.7349 24.2652 50.6404 24.5196 50.4723 24.7071C50.3041 24.8946 50.076 25 49.8382 25Z" fill="#FFB895"/>
</g>
<defs>
<filter id="filter0_d_1_302" x="-10" y="-3" width="87.3921" height="94" filterUnits="userSpaceOnUse" color-interpolation-filters="sRGB">
<feFlood flood-opacity="0" result="BackgroundImageFix"/>
<feColorMatrix in="SourceAlpha" type="matrix" values="0 0 0 0 0 0 0 0 0 0 0 0 0 0 0 0 0 0 127 0" result="hardAlpha"/>
<feOffset dy="4"/>
<feGaussianBlur stdDeviation="7.5"/>
<feColorMatrix type="matrix" values="0 0 0 0 0.0833333 0 0 0 0 0.0729167 0 0 0 0 0.0729167 0 0 0 0.25 0"/>
<feBlend mode="normal" in2="BackgroundImageFix" result="effect1_dropShadow_1_302"/>
<feBlend mode="normal" in="SourceGraphic" in2="effect1_dropShadow_1_302" result="shape"/>
</filter>
<linearGradient id="paint0_linear_1_302" x1="33.1477" y1="11" x2="33.1477" y2="69" gradientUnits="userSpaceOnUse">
<stop stop-color="#FF9159"/>
<stop offset="0.6875" stop-color="#FF7631"/>
<stop offset="1" stop-color="#FF6A1F"/>
</linearGradient>
</defs>
</svg>
